<?xml version="1.0" encoding="UTF-8"?>
<svg version="1.1" xmlns="http://www.w3.org/2000/svg" width="16" height="16">
<path d="M0 0 C0 0.99 0 1.98 0 3 C0.99 3 1.98 3 3 3 C3.99 3 4.98 3 6 3 C5.01 6.96 4.02 10.92 3 15 C1.68 14.67 0.36 14.34 -1 14 C-1.99 14.33 -2.98 14.66 -4 15 C-4.66 14.67 -5.32 14.34 -6 14 C-6.625 10.9375 -6.625 10.9375 -7 8 C-7.99 8 -8.98 8 -10 8 C-9.67 5.36 -9.34 2.72 -9 0 C-5.67465243 -1.10844919 -3.37817425 -0.84454356 0 0 Z " fill="#6A6461" transform="translate(10,1)"/>
<path d="M0 0 C0.66 0.33 1.32 0.66 2 1 C1.01 4.96 0.02 8.92 -1 13 C-2.32 12.67 -3.64 12.34 -5 12 C-5.99 12.33 -6.98 12.66 -8 13 C-8.66 12.67 -9.32 12.34 -10 12 C-10.625 9.4375 -10.625 9.4375 -11 7 C-8.03 7.33 -5.06 7.66 -2 8 C-1.855625 6.865625 -1.71125 5.73125 -1.5625 4.5625 C-1 1 -1 1 0 0 Z " fill="#454344" transform="translate(14,3)"/>
<path d="M0 0 C1.32 0 2.64 0 4 0 C4 1.65 4 3.3 4 5 C0.79937313 6.60031344 -1.72271806 5.03173691 -5 4 C-4.360625 3.71125 -3.72125 3.4225 -3.0625 3.125 C-0.84793921 2.17176549 -0.84793921 2.17176549 0 0 Z " fill="#827A6B" transform="translate(9,6)"/>
</svg>
